<svg height="1072" viewBox="14.41 72.28 1671.97 783.36" width="2500" xmlns="http://www.w3.org/2000/svg"><path d="m339.39 564.55-81.53-492.27h-143.04l-100.41 589.46h110.42l55.25-392.07h7.51l56.94 392.07h1441.76v-97.19z" fill="#1b4c80"/><path d="m375.29 621.91 13.83-1.15c.78 2.94 2.94 5.19 6.49 6.76s8.51 2.35 14.88 2.35 11.19-.69 14.29-2.08 4.66-3.02 4.66-4.89c0-1.68-1.37-3-4.12-3.96-1.92-.66-6.68-1.5-14.29-2.52-10.25-1.38-17.36-2.56-21.33-3.57-3.96-1-6.97-2.39-9.01-4.16-2.05-1.77-3.07-3.73-3.07-5.88 0-1.95.84-3.76 2.52-5.42s3.97-3.04 6.87-4.14c2.18-.85 5.14-1.58 8.9-2.17 3.75-.59 7.78-.89 12.08-.89 6.47 0 12.16.49 17.05 1.48 4.9.99 8.51 2.33 10.84 4.02s3.93 3.95 4.82 6.78l-13.67.99c-.62-2.26-2.42-4.01-5.4-5.28-2.98-1.26-7.19-1.9-12.62-1.9-6.42 0-11.01.56-13.75 1.69-2.75 1.13-4.12 2.45-4.12 3.96 0 .96.57 1.83 1.71 2.6 1.14.8 2.92 1.46 5.36 1.98 1.4.27 5.52.91 12.35 1.9 9.89 1.4 16.79 2.55 20.7 3.44s6.98 2.19 9.21 3.9c2.23 1.7 3.34 3.82 3.34 6.35s-1.36 4.8-4.08 6.99-6.64 3.88-11.77 5.07c-5.13 1.2-10.93 1.8-17.4 1.8-10.72 0-18.89-1.18-24.51-3.55-5.62-2.36-9.21-5.87-10.76-10.52zm79.94-8.83c0-8.11 4.25-14.11 12.74-18.02 7.1-3.25 15.74-4.87 25.95-4.87 11.34 0 20.61 1.97 27.81 5.92 7.2 3.94 10.8 9.39 10.8 16.35 0 5.64-1.59 10.07-4.78 13.3s-7.82 5.74-13.91 7.52c-6.09 1.79-12.73 2.68-19.93 2.68-11.55 0-20.89-1.97-28.01-5.9s-10.68-9.59-10.68-16.99zm14.38 0c0 5.61 2.3 9.81 6.91 12.6s10.41 4.19 17.4 4.19 12.72-1.4 17.33-4.21 6.91-7.08 6.91-12.82c0-5.42-2.32-9.52-6.95-12.31s-10.4-4.19-17.29-4.19-12.79 1.39-17.4 4.17-6.91 6.97-6.91 12.57zm79 21.9v-60.45h13.98v60.45zm89.73 0v-6.43c-6.42 4.95-15.15 7.42-26.18 7.42-4.87 0-9.41-.5-13.63-1.48-4.22-.99-7.35-2.23-9.4-3.73s-3.48-3.34-4.31-5.51c-.57-1.46-.85-3.77-.85-6.93v-27.13h13.98v24.29c0 3.88.28 6.49.85 7.84.88 1.95 2.75 3.48 5.59 4.6 2.85 1.11 6.37 1.67 10.57 1.67s8.13-.57 11.81-1.71 6.28-2.69 7.81-4.66 2.29-4.82 2.29-8.56v-23.46h13.98v43.79h-12.51zm88.25-16.04 13.75.95c-1.5 5.03-5.35 8.97-11.54 11.81-6.19 2.85-13.79 4.27-22.8 4.27-11.29 0-20.37-1.96-27.23-5.88s-10.29-9.53-10.29-16.85c0-4.73 1.48-8.87 4.43-12.41 2.95-3.55 7.44-6.21 13.48-7.98 6.03-1.77 12.6-2.66 19.69-2.66 8.96 0 16.29 1.2 21.99 3.61 5.7 2.4 9.35 5.82 10.95 10.24l-13.59 1.12c-1.29-2.94-3.59-5.16-6.87-6.64-3.29-1.48-7.27-2.23-11.93-2.23-7.04 0-12.77 1.34-17.17 4.02s-6.6 6.92-6.6 12.72 2.12 10.16 6.37 12.83 9.79 4 16.63 4c5.49 0 10.07-.89 13.75-2.68 3.68-1.78 6.01-4.53 6.99-8.24zm25.8-35.88v-8.53h13.98v8.53zm0 51.92v-43.79h13.98v43.79zm30.06-21.9c0-8.11 4.25-14.11 12.74-18.02 7.1-3.25 15.74-4.87 25.95-4.87 11.34 0 20.61 1.97 27.81 5.92 7.2 3.94 10.8 9.39 10.8 16.35 0 5.64-1.59 10.07-4.78 13.3s-7.82 5.74-13.91 7.52c-6.09 1.79-12.73 2.68-19.93 2.68-11.55 0-20.89-1.97-28.01-5.9s-10.68-9.59-10.68-16.99zm14.38 0c0 5.61 2.3 9.81 6.91 12.6s10.41 4.19 17.4 4.19 12.72-1.4 17.33-4.21 6.91-7.08 6.91-12.82c0-5.42-2.32-9.52-6.95-12.31s-10.4-4.19-17.29-4.19-12.79 1.39-17.4 4.17-6.91 6.97-6.91 12.57zm79.31 21.9v-43.79h12.59v6.23c6.06-4.81 14.81-7.22 26.26-7.22 4.97 0 9.54.47 13.71 1.42s7.29 2.19 9.36 3.73 3.53 3.37 4.35 5.49c.52 1.37.78 3.78.78 7.21v26.93h-13.98v-26.64c0-3.02-.54-5.28-1.63-6.78s-3.02-2.69-5.79-3.59c-2.77-.89-6.02-1.34-9.75-1.34-5.96 0-11.1 1-15.42 3.01-4.33 2.01-6.49 5.81-6.49 11.42v23.92h-13.98zm144.97-14.1 14.45.95c-2.28 4.48-6.5 7.96-12.66 10.43s-14.04 3.71-23.62 3.71c-12.07 0-21.63-1.97-28.7-5.92-7.07-3.94-10.61-9.48-10.61-16.6s3.57-13.08 10.72-17.15 16.42-6.1 27.82-6.1 20.04 1.99 27.03 5.98c6.99 3.98 10.49 9.6 10.49 16.82 0 .44-.03 1.1-.08 1.98h-61.53c.52 4.81 3.08 8.49 7.69 11.05s10.36 3.84 17.25 3.84c5.13 0 9.5-.72 13.13-2.14 3.62-1.43 6.5-3.71 8.62-6.85zm-45.92-12h46.07c-.62-3.68-2.39-6.45-5.28-8.29-4.45-2.86-10.23-4.29-17.32-4.29-6.42 0-11.82 1.14-16.2 3.42-4.38 2.29-6.8 5.34-7.27 9.16zm72.33 13.03 13.83-1.15c.78 2.94 2.94 5.19 6.49 6.76 3.54 1.57 8.51 2.35 14.87 2.35s11.19-.69 14.3-2.08 4.66-3.02 4.66-4.89c0-1.68-1.37-3-4.12-3.96-1.92-.66-6.68-1.5-14.29-2.52-10.26-1.38-17.36-2.56-21.33-3.57-3.96-1-6.97-2.39-9.01-4.16-2.05-1.77-3.07-3.73-3.07-5.88 0-1.95.84-3.76 2.52-5.42s3.97-3.04 6.88-4.14c2.17-.85 5.14-1.58 8.9-2.17s7.78-.89 12.08-.89c6.47 0 12.16.49 17.05 1.48s8.51 2.33 10.84 4.02 3.94 3.95 4.82 6.78l-13.67.99c-.62-2.26-2.42-4.01-5.4-5.28-2.98-1.26-7.19-1.9-12.62-1.9-6.42 0-11.01.56-13.75 1.69-2.75 1.13-4.12 2.45-4.12 3.96 0 .96.57 1.83 1.71 2.6 1.14.8 2.92 1.46 5.36 1.98 1.4.27 5.52.91 12.35 1.9 9.89 1.4 16.79 2.55 20.7 3.44s6.98 2.19 9.21 3.9c2.23 1.7 3.34 3.82 3.34 6.35s-1.36 4.8-4.08 6.99-6.64 3.88-11.77 5.07c-5.13 1.2-10.93 1.8-17.4 1.8-10.72 0-18.89-1.18-24.51-3.55s-9.21-5.87-10.76-10.52zm129.35 29.85v-60.58h12.74v5.69c3-2.23 6.39-3.9 10.18-5.01 3.78-1.11 8.36-1.67 13.75-1.67 7.04 0 13.25.96 18.64 2.89s9.45 4.64 12.2 8.14c2.74 3.51 4.12 7.35 4.12 11.52 0 4.48-1.52 8.52-4.55 12.1-3.03 3.59-7.43 6.34-13.21 8.25-5.77 1.91-11.85 2.87-18.22 2.87-4.66 0-8.84-.52-12.55-1.57-3.71-1.04-6.75-2.36-9.13-3.96v21.32h-13.98zm12.66-38.43c0 5.64 2.15 9.8 6.45 12.5 4.29 2.69 9.5 4.04 15.61 4.04s11.54-1.4 15.96-4.19c4.43-2.79 6.64-7.11 6.64-12.97s-2.16-9.76-6.49-12.53c-4.33-2.78-9.49-4.17-15.5-4.17s-11.23 1.48-15.81 4.43c-4.59 2.96-6.88 7.25-6.88 12.89zm129.67 16.25c-5.18 2.34-10.17 3.98-14.96 4.95-4.79.96-9.93 1.44-15.42 1.44-9.06 0-16.03-1.18-20.9-3.53s-7.3-5.35-7.3-9.01c0-2.14.92-4.1 2.76-5.88 1.84-1.77 4.25-3.19 7.22-4.27 2.98-1.07 6.33-1.88 10.06-2.43 2.74-.38 6.89-.75 12.43-1.11 11.29-.71 19.6-1.57 24.94-2.56.05-1.02.08-1.66.08-1.94 0-3.02-1.32-5.16-3.96-6.39-3.57-1.68-8.88-2.52-15.93-2.52-6.58 0-11.43.61-14.57 1.84-3.13 1.22-5.45 3.39-6.95 6.49l-13.67-.99c1.25-3.11 3.29-5.61 6.14-7.52s6.97-3.38 12.35-4.41c5.39-1.03 11.63-1.55 18.72-1.55s12.77.44 17.17 1.32 7.64 1.99 9.71 3.32c2.07 1.34 3.52 3.02 4.35 5.05.47 1.27.7 3.55.7 6.85v9.9c0 6.9.3 11.26.89 13.09.6 1.83 1.77 3.58 3.54 5.26h-14.61c-1.45-1.54-2.39-3.34-2.8-5.4zm-1.17-16.58c-5.08 1.1-12.69 2.04-22.84 2.81-5.75.44-9.81.94-12.2 1.48-2.38.55-4.22 1.35-5.51 2.41s-1.94 2.23-1.94 3.52c0 1.98 1.41 3.63 4.23 4.95s6.96 1.98 12.39 1.98 10.18-.63 14.37-1.88c4.2-1.25 7.28-2.96 9.25-5.14 1.5-1.68 2.25-4.15 2.25-7.42v-2.72zm35.66 21.98v-43.79h12.58v6.64c3.21-3.11 6.18-5.15 8.9-6.14s5.71-1.48 8.97-1.48c4.71 0 9.5.8 14.37 2.39l-4.82 6.89c-3.42-1.07-6.84-1.61-10.26-1.61-3.05 0-5.8.49-8.23 1.47-2.44.98-4.17 2.33-5.21 4.06-1.55 2.64-2.33 5.52-2.33 8.66v22.93h-13.98zm106.97-5.4c-5.18 2.34-10.17 3.98-14.96 4.95-4.79.96-9.93 1.44-15.42 1.44-9.06 0-16.03-1.18-20.9-3.53s-7.3-5.35-7.3-9.01c0-2.14.92-4.1 2.76-5.88 1.84-1.77 4.25-3.19 7.22-4.27 2.98-1.07 6.33-1.88 10.06-2.43 2.74-.38 6.89-.75 12.43-1.11 11.29-.71 19.6-1.57 24.94-2.56.05-1.02.08-1.66.08-1.94 0-3.02-1.32-5.16-3.96-6.39-3.57-1.68-8.88-2.52-15.93-2.52-6.58 0-11.43.61-14.57 1.84-3.13 1.22-5.45 3.39-6.95 6.49l-13.67-.99c1.25-3.11 3.29-5.61 6.14-7.52s6.97-3.38 12.35-4.41c5.39-1.03 11.63-1.55 18.72-1.55s12.77.44 17.17 1.32 7.64 1.99 9.71 3.32c2.07 1.34 3.52 3.02 4.35 5.05.47 1.27.7 3.55.7 6.85v9.9c0 6.9.3 11.26.89 13.09.6 1.83 1.77 3.58 3.54 5.26h-14.61c-1.45-1.54-2.39-3.34-2.8-5.4zm-1.16-16.58c-5.08 1.1-12.69 2.04-22.84 2.81-5.75.44-9.81.94-12.2 1.48-2.38.55-4.22 1.35-5.51 2.41s-1.94 2.23-1.94 3.52c0 1.98 1.41 3.63 4.23 4.95s6.96 1.98 12.39 1.98 10.18-.63 14.37-1.88c4.2-1.25 7.28-2.96 9.25-5.14 1.5-1.68 2.25-4.15 2.25-7.42v-2.72zm79.71 21.98v-60.45h13.98v60.45zm89.49-5.4c-5.18 2.34-10.17 3.98-14.96 4.95-4.79.96-9.93 1.44-15.42 1.44-9.06 0-16.03-1.18-20.9-3.53s-7.3-5.35-7.3-9.01c0-2.14.92-4.1 2.76-5.88 1.84-1.77 4.25-3.19 7.22-4.27 2.98-1.07 6.33-1.88 10.06-2.43 2.74-.38 6.89-.75 12.43-1.11 11.29-.71 19.6-1.57 24.94-2.56.05-1.02.08-1.66.08-1.94 0-3.02-1.32-5.16-3.96-6.39-3.57-1.68-8.88-2.52-15.93-2.52-6.58 0-11.43.61-14.57 1.84-3.13 1.22-5.45 3.39-6.95 6.49l-13.67-.99c1.25-3.11 3.29-5.61 6.14-7.52s6.97-3.38 12.35-4.41c5.39-1.03 11.63-1.55 18.72-1.55s12.77.44 17.17 1.32 7.64 1.99 9.71 3.32c2.07 1.34 3.52 3.02 4.35 5.05.47 1.27.7 3.55.7 6.85v9.9c0 6.9.3 11.26.89 13.09.6 1.83 1.77 3.58 3.54 5.26h-14.61c-1.45-1.54-2.39-3.34-2.8-5.4zm-1.16-16.58c-5.08 1.1-12.69 2.04-22.84 2.81-5.75.44-9.81.94-12.2 1.48-2.38.55-4.22 1.35-5.51 2.41s-1.94 2.23-1.94 3.52c0 1.98 1.41 3.63 4.23 4.95s6.96 1.98 12.39 1.98 10.18-.63 14.37-1.88c4.2-1.25 7.28-2.96 9.25-5.14 1.5-1.68 2.25-4.15 2.25-7.42v-2.72z" fill="#fff"/><path d="m150.73 772.08h-57.39v-15.03c0-5.24-.65-8.79-1.96-10.66s-3.72-2.8-7.23-2.8-5.87.82-7.08 2.46c-1.2 1.64-1.81 5.31-1.81 11.01v61.52c0 4.65.9 8.14 2.71 10.47s4.47 3.49 7.98 3.49c4.12 0 6.9-1.21 8.36-3.64 1.45-2.42 2.18-7.01 2.18-13.76v-15.52h54.23c-.1 10.42-.68 18.23-1.73 23.44s-4.42 10.55-10.09 16.02-13.08 9.6-22.22 12.38-20.44 4.18-33.89 4.18c-17.17 0-30.78-1.92-40.82-5.75s-17.15-9.2-21.31-16.11c-4.17-6.91-6.25-16.72-6.25-29.43v-37.04c0-11.07 1.71-19.42 5.12-25.06 3.41-5.63 10.7-10.66 21.84-15.08 11.15-4.42 24.7-6.63 40.67-6.63s29.42 2.2 40.67 6.59 18.73 9.93 22.44 16.6c3.71 6.68 5.57 16.15 5.57 28.4zm155.75-3.44v31.94c0 11.72-.9 20.33-2.71 25.79-1.81 5.47-5.67 10.58-11.6 15.33s-13.53 8.26-22.82 10.52-19.96 3.39-32.01 3.39c-13.46 0-24.85-.97-34.19-2.9s-16.59-4.85-21.77-8.75c-5.17-3.9-8.86-8.61-11.07-14.15s-3.32-13.84-3.32-24.91v-33.41c0-12.12 2.01-21.58 6.03-28.4 4.01-6.82 11.25-12.29 21.69-16.41 10.44-4.13 23.8-6.19 40.07-6.19 13.65 0 25.38 1.33 35.17 3.98s17.35 6.11 22.67 10.37 8.96 8.65 10.92 13.17 2.94 11.4 2.94 20.63zm-60.85-9.82c0-6.68-.55-10.89-1.66-12.63s-3.46-2.6-7.08-2.6-6.02.87-7.23 2.6c-1.2 1.74-1.81 5.94-1.81 12.63v58.86c0 6.16.6 10.17 1.81 12.04s3.56 2.8 7.08 2.8 6-.85 7.16-2.56c1.15-1.7 1.73-5.37 1.73-11.01v-60.14zm142.79-35.97-1.05 12.01c4.42-4.79 9.81-8.38 16.19-10.78s13.73-3.6 22.07-3.6c10.44 0 18.98 1.61 25.61 4.82s10.9 7.26 12.8 12.14c1.91 4.88 2.86 13.02 2.86 24.42v91.39h-60.85v-90.31c0-8.97-.45-14.44-1.36-16.41-.9-1.96-3.42-2.95-7.53-2.95-4.32 0-7.03 1.13-8.14 3.39s-1.66 8.3-1.66 18.13v88.14h-60.85v-130.4h61.91zm223.68 41.67h-53.93v-7.08c0-6.03-.53-9.84-1.58-11.45-1.06-1.61-3.69-2.41-7.91-2.41-3.42 0-5.98.74-7.68 2.21-1.71 1.47-2.56 3.68-2.56 6.63 0 4 .43 6.93 1.28 8.8s3.41 3.91 7.68 6.14 13.03 5.47 26.28 9.73c17.67 5.64 29.27 10.94 34.79 15.92s8.29 12.22 8.29 21.72c0 10.62-2.11 18.62-6.33 24.03-4.22 5.4-11.27 9.57-21.16 12.48s-21.82 4.37-35.77 4.37c-15.47 0-28.69-1.57-39.69-4.72-11-3.14-18.55-7.4-22.67-12.77s-6.18-13.49-6.18-24.37v-6.29h53.93v8.26c0 7.01.68 11.57 2.03 13.66 1.35 2.1 4.04 3.15 8.06 3.15 4.32 0 7.33-.7 9.04-2.11s2.56-4.37 2.56-8.89c0-6.22-1.11-10.12-3.31-11.7-2.31-1.57-14.11-6.22-35.4-13.95-17.87-6.55-28.77-12.49-32.69-17.83s-5.88-11.68-5.88-19.02c0-10.42 2.11-18.1 6.33-23.05 4.22-4.94 11.37-8.76 21.46-11.45s21.82-4.03 35.17-4.03 24.53 1.1 33.82 3.29c9.29 2.2 16.42 5.09 21.39 8.7 4.97 3.6 7.98 6.95 9.04 10.03s1.58 7.89 1.58 14.44v7.57zm85.11-59.06v20.54h16.42v20.64h-16.42v69.77c0 8.58.68 13.36 2.03 14.34 1.36.98 7.01 1.47 16.95 1.47v21.03h-24.55c-13.86 0-23.75-.37-29.67-1.13-5.93-.75-11.15-2.49-15.67-5.21s-7.33-5.83-8.44-9.34-1.66-11.74-1.66-24.72v-66.23h-13.11v-20.64h13.11v-20.54h61zm90.67 17.39-2.41 17.15c8.83-12.28 21.64-18.78 38.41-19.51v45.89c-11.15 0-19.33.98-24.55 2.95-5.22 1.96-8.44 4.7-9.64 8.2-1.2 3.51-1.81 11.58-1.81 24.22v51.49h-60.85v-130.4h60.85zm188.89 0v130.4h-61.91l1.05-10.83c-4.22 4.4-9.41 7.7-15.59 9.9s-13.28 3.3-21.32 3.3c-9.14 0-16.72-1.05-22.74-3.15s-10.47-4.88-13.33-8.35-4.65-7.09-5.35-10.86-1.05-11.25-1.05-22.46v-87.95h60.85v88.73c0 10.16.47 16.18 1.43 18.08.95 1.9 3.54 2.85 7.75 2.85 4.52 0 7.21-.98 8.06-2.95.85-1.96 1.28-8.29 1.28-18.96v-87.75h60.85zm156.35 49.23h-57.39v-15.03c0-5.24-.65-8.79-1.96-10.66s-3.71-2.8-7.23-2.8-5.88.82-7.08 2.46c-1.21 1.64-1.81 5.31-1.81 11.01v61.52c0 4.65.91 8.14 2.71 10.47 1.81 2.33 4.47 3.49 7.98 3.49 4.11 0 6.9-1.21 8.36-3.64 1.45-2.42 2.18-7.01 2.18-13.76v-15.52h54.23c-.1 10.42-.68 18.23-1.73 23.44s-4.42 10.55-10.09 16.02-13.08 9.6-22.22 12.38-20.43 4.18-33.89 4.18c-17.17 0-30.78-1.92-40.82-5.75s-17.15-9.2-21.32-16.11-6.25-16.72-6.25-29.43v-37.04c0-11.07 1.71-19.42 5.12-25.06 3.41-5.63 10.69-10.66 21.84-15.08s24.7-6.63 40.67-6.63 29.42 2.2 40.67 6.59 18.73 9.93 22.44 16.6c3.71 6.68 5.57 16.15 5.57 28.4zm152.59 0h-57.39v-15.03c0-5.24-.65-8.79-1.96-10.66s-3.71-2.8-7.23-2.8-5.88.82-7.08 2.46c-1.21 1.64-1.81 5.31-1.81 11.01v61.52c0 4.65.91 8.14 2.71 10.47 1.81 2.33 4.47 3.49 7.98 3.49 4.11 0 6.9-1.21 8.36-3.64 1.45-2.42 2.18-7.01 2.18-13.76v-15.52h54.23c-.1 10.42-.68 18.23-1.73 23.44s-4.42 10.55-10.09 16.02-13.08 9.6-22.22 12.38-20.43 4.18-33.89 4.18c-17.17 0-30.78-1.92-40.82-5.75s-17.15-9.2-21.32-16.11-6.25-16.72-6.25-29.43v-37.04c0-11.07 1.71-19.42 5.12-25.06 3.41-5.63 10.69-10.66 21.84-15.08s24.7-6.63 40.67-6.63 29.42 2.2 40.67 6.59 18.73 9.93 22.44 16.6c3.71 6.68 5.57 16.15 5.57 28.4zm80.73-77.92v20.73h-62.66v-20.73zm0 28.69v130.4h-62.66v-130.4zm159.52 45.79v31.94c0 11.72-.9 20.33-2.71 25.79-1.81 5.47-5.68 10.58-11.6 15.33-5.93 4.75-13.53 8.26-22.82 10.52s-19.96 3.39-32.01 3.39c-13.46 0-24.85-.97-34.19-2.9s-16.6-4.85-21.77-8.75c-5.18-3.9-8.86-8.61-11.07-14.15s-3.31-13.84-3.31-24.91v-33.41c0-12.12 2.01-21.58 6.03-28.4 4.01-6.82 11.24-12.29 21.69-16.41 10.44-4.13 23.8-6.19 40.07-6.19 13.65 0 25.38 1.33 35.17 3.98s17.35 6.11 22.67 10.37 8.96 8.65 10.92 13.17 2.93 11.4 2.93 20.63zm-18.08-81.16-49.56 26.63h-30.58l26.51-26.63h53.62zm-42.77 71.34c0-6.68-.55-10.89-1.66-12.63s-3.47-2.6-7.08-2.6-6.03.87-7.23 2.6c-1.21 1.74-1.81 5.94-1.81 12.63v58.86c0 6.16.6 10.17 1.81 12.04 1.2 1.87 3.56 2.8 7.08 2.8s6-.85 7.15-2.56c1.15-1.7 1.73-5.37 1.73-11.01v-60.14zm142.79-35.97-1.05 12.01c4.42-4.79 9.81-8.38 16.19-10.78 6.37-2.4 13.73-3.6 22.07-3.6 10.44 0 18.98 1.61 25.61 4.82s10.89 7.26 12.8 12.14 2.86 13.02 2.86 24.42v91.39h-60.85v-90.31c0-8.97-.45-14.44-1.35-16.41-.91-1.96-3.41-2.95-7.53-2.95s-7.03 1.13-8.13 3.39c-1.11 2.26-1.65 8.3-1.65 18.13v88.14h-60.85v-130.4h61.91zm-1099.17-513.07-2.28 28.59c9.53-11.4 21.16-19.95 34.9-25.65s29.6-8.55 47.56-8.55c22.51 0 40.91 3.82 55.19 11.46 14.29 7.64 23.49 17.27 27.6 28.88 4.11 11.62 6.17 30.98 6.17 58.11v217.48h-131.17v-214.91c0-21.36-.98-34.37-2.92-39.05-1.95-4.68-7.36-7.01-16.23-7.01-9.31 0-15.15 2.69-17.53 8.06-2.38 5.38-3.57 19.76-3.57 43.15v209.76h-131.16v-310.32zm512.65-68.29v378.6h-131.16v-22.51c-12.55 9.38-25.76 16.4-39.61 21.09s-28.36 7.03-43.51 7.03c-20.35 0-37.99-3.86-52.92-11.58-14.94-7.72-24.51-16.64-28.73-26.78-4.22-10.13-6.33-26.66-6.33-49.57v-145.22c0-23.85 2.11-40.77 6.33-50.74s13.9-18.75 29.06-26.31c15.15-7.56 33.22-11.34 54.22-11.34 16.24 0 31.11 2.11 44.64 6.33 13.52 4.22 25.81 10.55 36.85 18.98v-87.98zm-131.16 146.39c0-11.38-1.36-19.02-4.06-22.92-2.71-3.9-8.07-5.85-16.07-5.85s-13.04 1.75-15.75 5.26-4.06 11.34-4.06 23.5v152.01c0 12.63 1.3 20.92 3.9 24.9 2.6 3.97 7.58 5.96 14.94 5.96 8.44 0 14.07-2.23 16.88-6.67s4.22-15.32 4.22-32.62v-143.58zm475.31 82.55h-169.81v67.12c0 14.03 1.41 23.07 4.22 27.12 2.81 4.06 8.23 6.08 16.24 6.08 9.95 0 16.61-2.69 19.96-8.07s5.03-15.78 5.03-31.22v-40.92h124.35v22.92c0 19.18-1.68 33.91-5.03 44.2-3.36 10.29-11.21 21.28-23.54 32.97-12.34 11.69-27.97 20.47-46.91 26.31-18.95 5.85-42.69 8.77-71.27 8.77s-52.16-2.89-73.37-8.66c-21.21-5.76-37.72-13.68-49.51-23.73-11.8-10.06-19.97-21.13-24.51-33.21s-6.82-29.66-6.82-52.73v-90.5c0-27.13 5.08-48.52 15.26-64.19 10.17-15.67 26.84-27.67 50-36.02 23.16-8.33 49.78-12.51 79.87-12.51 36.79 0 67.15 5.03 91.07 15.08 23.91 10.06 40.69 23.39 50.32 39.99s14.45 39.95 14.45 70.03v41.16zm-131.49-50.51v-22.68c0-16.05-1.19-26.42-3.57-31.1s-7.25-7.01-14.6-7.01c-9.1 0-14.73 1.99-16.89 5.96-2.17 3.97-3.25 14.7-3.25 32.15v22.68zm442.2-10.99h-116.23v-16.84c0-14.34-1.14-23.42-3.41-27.25-2.28-3.82-7.96-5.73-17.05-5.73-7.36 0-12.88 1.75-16.56 5.26-3.69 3.51-5.52 8.77-5.52 15.78 0 9.52.92 16.49 2.77 20.93 1.83 4.44 7.36 9.32 16.56 14.62 9.19 5.3 28.08 13.02 56.66 23.15 38.09 13.41 63.09 26.03 75 37.88 11.9 11.85 17.85 29.08 17.85 51.68 0 25.25-4.54 44.31-13.63 57.17-9.1 12.87-24.3 22.77-45.62 29.7-21.33 6.94-47.03 10.41-77.11 10.41-33.34 0-61.86-3.74-85.56-11.23-23.7-7.48-39.99-17.62-48.86-30.4-8.88-12.78-13.31-32.11-13.31-58v-14.97h116.23v19.65c0 16.68 1.46 27.52 4.38 32.5 2.92 4.99 8.71 7.49 17.37 7.49 9.31 0 15.8-1.68 19.48-5.03s5.52-10.41 5.52-21.16c0-14.81-2.39-24.09-7.14-27.83-4.98-3.74-30.42-14.81-76.3-33.21-38.52-15.59-62.01-29.74-70.45-42.45-8.44-12.7-12.66-27.79-12.66-45.25 0-24.79 4.54-43.06 13.64-54.83 9.09-11.77 24.51-20.86 46.26-27.25s47.02-9.59 75.81-9.59 52.86 2.61 72.89 7.83c20.02 5.22 35.39 12.12 46.1 20.7 10.72 8.57 17.21 16.52 19.48 23.85 2.28 7.33 3.41 18.79 3.41 34.37v18.01z" fill="#1b4c80"/></svg>